<svg width="21" height="25" viewBox="0 0 21 25" fill="none" xmlns="http://www.w3.org/2000/svg">
<path d="M16.848 23.04C15.5472 24.3023 14.112 24.1057 12.744 23.5103C11.2896 22.9032 9.96 22.8648 8.424 23.5103C6.5112 24.336 5.496 24.096 4.344 23.04C-2.16 16.344 -1.2 6.144 6.192 5.76C7.9848 5.856 9.24 6.7512 10.296 6.8256C11.8656 6.5064 13.368 5.592 15.048 5.712C17.0663 5.8752 18.576 6.672 19.584 8.1048C15.432 10.6008 16.416 16.0728 20.2297 17.6088C19.4663 19.6128 18.4872 21.5928 16.8457 23.0568L16.848 23.04ZM10.152 5.688C9.9576 2.712 12.3696 0.264002 15.144 0.0240021C15.5256 3.456 12.024 6.024 10.152 5.688Z" fill="#FCFCFC"/>
</svg>
