<svg width="23" height="24" viewBox="0 0 23 24" fill="none" xmlns="http://www.w3.org/2000/svg">
<path d="M12.7048 11.995L0.980386 23.4994C0.358398 23.0227 -0.00446033 22.2823 4.13989e-05 21.4987V2.51136C-0.00436654 1.72777 0.358398 0.98724 0.980386 0.51062L12.7048 11.995Z" fill="#2196F3"/>
<path d="M22.0084 11.995C22.0085 12.9056 21.5196 13.746 20.7279 14.1959L17.0466 16.2366L12.7048 11.995L17.0465 7.75333L20.7278 9.81408C21.5145 10.2593 22.0031 11.0912 22.0084 11.995Z" fill="#FFC107"/>
<path d="M17.0465 16.2366L3.68132 23.6995C3.31115 23.8946 2.89933 23.9976 2.48086 23.9996C2.04326 24.0079 1.61259 23.8898 1.24036 23.6594C1.15098 23.6106 1.06413 23.5571 0.980286 23.4993L12.7048 11.995L17.0465 16.2366Z" fill="#F44336"/>
<path d="M17.0465 7.75342L12.7049 11.995L0.980408 0.510615C1.06435 0.452843 1.1511 0.399385 1.24048 0.350523C1.98739 -0.102088 2.92009 -0.117375 3.68144 0.310476L17.0465 7.75342Z" fill="#4CAF50"/>
</svg>
